/* XPM */
static char *_c62b74facc84a78e8316f26ffe81c1eZNk2BDt25eYLemjk[] = {
/* columns rows colors chars-per-pixel */
"16 16 4 1 ",
"  c #353E50",
". c #434F65",
"X c #5A6988",
"o c #6F7F9F",
/* pixels */
"       .        ",
"ooooooo.oooooooo",
"oXXXXXo.oXXXXXXo",
"    .       .   ",
"oooo.ooooooo.ooo",
"oXXo.oXXXXXo.oXX",
"XXXX.XXXXXXX.XXX",
"       .        ",
"ooooooo.oooooooo",
"oXXXXXo.oXXXXXXo",
"XXXXXXX.XXXXXXXX",
"    .       .   ",
"oooo.ooooooo.ooo",
"oXXo.oXXXXXo.oXX",
"XXXX.XXXXXXX.XXX",
"................"
};
